<?xml version="1.0" encoding="UTF-8"?>
<svg version="1.1" xmlns="http://www.w3.org/2000/svg" width="981" height="914">
<path d="M0 0 C0.98487943 -0.00297112 1.96975886 -0.00594224 2.98448312 -0.0090034 C6.28217504 -0.01766968 9.57983056 -0.01919691 12.87753296 -0.02069092 C15.24315468 -0.02532058 17.60877565 -0.03034544 19.97439575 -0.03573608 C27.07027165 -0.05021561 34.16613976 -0.05624274 41.2620278 -0.0611316 C44.60869053 -0.06371294 47.9553518 -0.06750277 51.3020134 -0.07125092 C62.43522554 -0.08344045 73.56843577 -0.09374007 84.70165443 -0.09712601 C85.76955311 -0.09745536 85.76955311 -0.09745536 86.8590255 -0.09779136 C87.92940045 -0.09811878 87.92940045 -0.09811878 89.02139914 -0.09845281 C90.46725885 -0.09889626 91.91311856 -0.09934283 93.35897827 -0.09979248 C94.07616631 -0.10001391 94.79335435 -0.10023534 95.53227536 -0.10046348 C107.14416422 -0.10440855 118.7559902 -0.1218551 130.36785479 -0.145152 C142.30555618 -0.16890817 154.24322608 -0.18132981 166.18095148 -0.18249393 C172.8770675 -0.18340834 179.57308919 -0.18942333 186.26918411 -0.20731354 C192.5712649 -0.22382358 198.8731906 -0.22593537 205.17528534 -0.21717453 C207.48266135 -0.21640571 209.7900458 -0.22072627 212.09740067 -0.23063278 C233.02085664 -0.31516636 249.94724051 1.93512722 265.4727478 17.27716064 C275.7528156 28.18206614 281.54951366 41.3377034 281.39901733 56.39239502 C281.39930939 57.17384888 281.39960144 57.95530273 281.39990234 58.76043701 C281.3985216 61.31430611 281.38302036 63.86787448 281.36727905 66.42169189 C281.36354445 68.20387615 281.36069959 69.98606246 281.35870361 71.76824951 C281.3511024 76.43713139 281.3314844 81.10588694 281.30929565 85.77471924 C281.28876123 90.54765108 281.27968571 95.32060352 281.2696228 100.09356689 C281.24823493 109.44258044 281.2141418 118.79150062 281.17196655 128.14044189 C281.79737178 128.13968245 282.422777 128.13892301 283.0671339 128.13814056 C320.13527617 128.09338257 357.20341444 128.05906784 394.27157819 128.03831124 C398.7225866 128.03580983 403.17359495 128.03322118 407.62460327 128.03057861 C408.51071738 128.03005399 409.39683148 128.02952937 410.30979753 128.02898885 C424.65685698 128.0202867 439.00390041 128.00451775 453.35095036 127.9861363 C468.07278954 127.96743201 482.79462033 127.95632405 497.51647091 127.9522649 C506.60032728 127.94952095 515.68413833 127.94085489 524.76798075 127.92460896 C530.99745338 127.91403555 537.22690258 127.91084208 543.45638353 127.91343914 C547.05022857 127.91471987 550.64399444 127.91275905 554.23782539 127.90203094 C558.13680009 127.89047712 562.03567192 127.89446999 565.93466187 127.89993286 C567.06697078 127.89410718 568.19927969 127.8882815 569.36590099 127.88227928 C578.78618755 127.91798856 587.7721956 128.92686994 594.8711853 135.78106689 C600.38079887 141.91768249 602.25585225 147.89567665 602.17196655 156.14044189 C600.96417093 163.45250188 598.18810226 170.06033781 592.21102905 174.64434814 C587.08540503 177.9883891 583.12963402 179.26691727 576.98342896 179.26069641 C575.9345752 179.26207108 574.88572144 179.26344574 573.80508423 179.26486206 C572.65997375 179.26126678 571.51486328 179.25767151 570.33505249 179.25396729 C569.12502563 179.25411331 567.91499878 179.25425934 566.66830444 179.25440979 C563.35457293 179.25383271 560.04090381 179.24881917 556.72718334 179.24183583 C553.2625109 179.2355824 549.79783762 179.23499692 546.3331604 179.23381042 C539.77424846 179.23070298 533.2153532 179.22249749 526.6564486 179.21246094 C519.18854377 179.20128159 511.72063815 179.19578475 504.25272703 179.1907655 C488.89246388 179.1803144 473.53221737 179.16272631 458.17196655 179.14044189 C458.17259048 179.70293938 458.1732144 180.26543687 458.17385723 180.84497973 C458.24166035 242.10117655 458.30447958 303.35737753 458.34133911 364.61360168 C458.34216745 365.98668994 458.34216745 365.98668994 458.34301253 367.38751735 C458.35498487 387.28267418 458.3660655 407.17783142 458.37622787 427.07298925 C458.38121711 436.82992994 458.38640334 446.58687051 458.39169312 456.34381104 C458.39221615 457.31473072 458.39273919 458.28565041 458.39327807 459.28599191 C458.4103157 490.741859 458.44035515 522.1976973 458.47715544 553.65354695 C458.51491174 585.98539219 458.53951435 618.31722151 458.54762651 650.64908842 C458.54877909 655.21840642 458.55008164 659.78772437 458.55147552 664.35704231 C458.55188006 665.70596947 458.55188006 665.70596947 458.55229277 667.08214768 C458.55701496 681.54329761 458.57555453 696.00439822 458.59929469 710.46552806 C458.62288025 725.01284634 458.63182932 739.56011585 458.62597206 754.10745256 C458.62293567 762.74447013 458.63098757 771.38130883 458.65515673 780.01829401 C458.67021923 785.79717485 458.67057725 791.57593933 458.65929381 797.35482838 C458.65328786 800.64163964 458.65562383 803.92804884 458.67149928 807.21483677 C458.81581227 838.94800016 451.22898227 864.23843445 428.98446655 887.70294189 C411.73175183 904.45343718 388.1808423 914.31824418 364.17740917 914.27466297 C362.8463212 914.27819132 362.8463212 914.27819132 361.48834255 914.28179094 C358.51163026 914.28845355 355.5349619 914.28802355 352.5582428 914.28761292 C350.40363382 914.29091325 348.24902545 914.29463918 346.09441787 914.29875439 C340.17055877 914.30876329 334.24670979 914.31248941 328.32284343 914.3151437 C321.93469175 914.31905006 315.54654806 914.3286282 309.15840149 914.33735657 C294.4584003 914.35617817 279.75839937 914.36637585 265.05838903 914.37481725 C257.78965947 914.3790271 250.52093073 914.38424867 243.25220187 914.38950178 C218.356909 914.40739127 193.46161589 914.42238555 168.56631756 914.42982197 C167.00393945 914.43029672 165.44156133 914.43077261 163.87918322 914.43124963 C162.71701641 914.43160419 162.71701641 914.43160419 161.53137149 914.43196592 C157.60614992 914.43316708 153.68092835 914.43438255 149.75570679 914.43560791 C148.97674308 914.43584806 148.19777938 914.43608821 147.39521071 914.43633564 C122.15283742 914.44422439 96.91051118 914.46764783 71.66815843 914.50016385 C44.96348246 914.53450058 18.25883402 914.55417671 -8.44586438 914.55746621 C-11.38038998 914.55788373 -14.31491556 914.55836328 -17.24944115 914.55888939 C-18.33323875 914.55907418 -18.33323875 914.55907418 -19.43893125 914.5592627 C-31.04212341 914.56159003 -42.64526072 914.57722395 -54.24843337 914.59773124 C-65.92383441 914.61803791 -77.59915452 914.62311163 -89.27457163 914.6139606 C-95.59372391 914.60942231 -101.91269893 914.61127508 -108.23182678 914.63072205 C-114.02626439 914.64839969 -119.82039601 914.64731848 -125.61483707 914.63182475 C-127.70174825 914.62945568 -129.78868088 914.63373546 -131.87555937 914.6456534 C-147.64889827 914.73009285 -162.99305187 913.34196375 -177.64053345 906.95294189 C-178.33155151 906.65887451 -179.02256958 906.36480713 -179.73452759 906.06182861 C-203.71961952 895.40117306 -221.33844335 874.21640491 -230.82803345 850.14044189 C-234.43995753 839.25851089 -235.98028571 829.51643577 -235.95108128 818.1278162 C-235.95223512 817.0222964 -235.95338896 815.91677659 -235.95457777 814.77775618 C-235.95723266 811.0592046 -235.9527315 807.34069599 -235.94828796 803.62214661 C-235.9487239 800.93498386 -235.94955699 798.24782391 -235.95087713 795.56066173 C-235.95294973 789.7110993 -235.95130903 783.86154703 -235.94723892 778.01198578 C-235.94120364 769.31390381 -235.94090314 760.61582826 -235.94178091 751.91774459 C-235.94309487 737.28615499 -235.93975318 722.65456992 -235.9337635 708.02298164 C-235.92784766 693.53465312 -235.9239978 679.04632647 -235.92291069 664.55799675 C-235.92284195 663.65735252 -235.92277321 662.75670829 -235.92270239 661.82877181 C-235.92236406 657.25490533 -235.92206267 652.68103885 -235.92177551 648.10717236 C-235.91967478 615.70558189 -235.91293651 583.30399387 -235.9034729 550.90240479 C-235.89428941 519.42356377 -235.88720533 487.94472343 -235.88296509 456.46588135 C-235.88283356 455.49566569 -235.88270204 454.52545003 -235.88256652 453.52583389 C-235.88124801 443.78258129 -235.8799722 434.03932868 -235.87872766 424.29607606 C-235.87619141 404.44772478 -235.87337016 384.59937355 -235.87037659 364.75102234 C-235.87017065 363.38211218 -235.87017065 363.38211218 -235.86996056 361.98554728 C-235.86075899 301.03717779 -235.84491368 240.08880968 -235.82803345 179.14044189 C-236.45880012 179.14412907 -237.08956678 179.14781624 -237.73944759 179.15161514 C-253.11443115 179.24009932 -268.48932567 179.306216 -283.864501 179.34769058 C-291.29994816 179.36828247 -298.73522496 179.39633805 -306.17056274 179.44219971 C-312.65409322 179.48217136 -319.13750027 179.50789922 -325.62115055 179.51679587 C-329.05164539 179.52199328 -332.48178723 179.53413745 -335.9121685 179.56336212 C-339.74948799 179.59246661 -343.58608004 179.59639474 -347.42349243 179.59454346 C-348.55062653 179.60892456 -349.67776062 179.62330566 -350.83905029 179.63812256 C-359.04851692 179.59536431 -365.28932138 178.12868764 -371.64053345 172.76544189 C-378.7798643 164.19824488 -379.79575002 156.98554144 -378.82803345 146.14044189 C-376.7794404 139.60882909 -372.42350547 134.93967694 -366.82803345 131.14044189 C-359.65671516 127.46732765 -351.67869443 128.00010329 -343.83123779 128.02018738 C-342.61329619 128.01933295 -341.39535459 128.01847853 -340.14050567 128.01759821 C-336.76777262 128.01623731 -333.39509777 128.01935722 -330.02237177 128.02437627 C-326.38236144 128.02869874 -322.74235287 128.02723307 -319.1023407 128.026474 C-312.79837748 128.02594991 -306.49442463 128.02908477 -300.19046402 128.03471184 C-291.07601973 128.04284232 -281.96158043 128.04544365 -272.84713291 128.04669983 C-258.05918806 128.04888791 -243.27124873 128.0555414 -228.48330688 128.06500244 C-214.11904935 128.07418285 -199.75479332 128.08126061 -185.39053345 128.08551025 C-184.5049721 128.08577298 -183.61941076 128.0860357 -182.70701422 128.08630639 C-178.26436887 128.08761143 -173.82172351 128.08887514 -169.37907815 128.09011829 C-132.52872602 128.10048331 -95.67838016 128.11809502 -58.82803345 128.14044189 C-58.83691589 127.16706375 -58.84579834 126.19368561 -58.85494995 125.19081116 C-58.93642727 115.96790461 -58.99618531 106.74507214 -59.03528214 97.52188587 C-59.05605873 92.7813841 -59.08419237 88.04117543 -59.12979126 83.30084229 C-59.17360648 78.71666821 -59.19724498 74.1327741 -59.20754242 69.5484066 C-59.21487034 67.80909513 -59.22917796 66.06979705 -59.25095367 64.33060646 C-59.37635036 53.88960973 -58.73955458 44.99860517 -54.82803345 35.14044189 C-54.29185394 33.78708488 -54.29185394 33.78708488 -53.74484253 32.40638733 C-48.66473835 20.32772329 -37.29124369 9.97189523 -25.52334595 4.64434814 C-16.81456093 1.15885936 -9.30394876 -0.0088015 0 0 Z M-6.83813667 52.98342609 C-17.29100313 75.76054658 -8.82803345 103.07932391 -8.82803345 128.14044189 C70.37196655 128.14044189 149.57196655 128.14044189 231.17196655 128.14044189 C235.34108367 88.80214488 235.34108367 88.80214488 228.17196655 52.14044189 C226.27882886 50.2473042 223.50501889 51.00661212 220.98470891 50.9927122 C220.0869681 50.99289656 219.1892273 50.99308092 218.26428223 50.99327087 C217.31816035 50.98959419 216.37203848 50.9859175 215.39724624 50.9821294 C212.20121667 50.9710449 209.00521955 50.9672407 205.80917358 50.96343994 C203.52820735 50.95717897 201.24724215 50.9505325 198.96627808 50.94352722 C192.75146158 50.92608516 186.5366528 50.91555711 180.32181787 50.90732169 C176.4437703 50.9021792 172.56572516 50.89610319 168.68767929 50.88981056 C157.95783536 50.87293692 147.22799516 50.85830116 136.49814034 50.85106182 C133.71216963 50.84915181 130.92619894 50.8472315 128.14022827 50.84527588 C127.44775808 50.84479214 126.75528788 50.8443084 126.04183374 50.84381 C114.81798311 50.83550526 103.59423891 50.81016171 92.37043478 50.7776952 C80.85668528 50.74466051 69.34300593 50.7269494 57.8292073 50.72341758 C51.3607491 50.72106034 44.89245905 50.71201252 38.42404556 50.68695641 C32.34199158 50.66377807 26.2602177 50.65940106 20.1781311 50.66971779 C17.9411514 50.67021574 15.70415837 50.66381974 13.46722031 50.65016174 C10.42234477 50.63260538 7.37849232 50.63946854 4.33361816 50.6526947 C3.4403388 50.64172546 2.54705944 50.63075621 1.62671101 50.61945456 C-3.05548777 50.5499669 -3.05548777 50.5499669 -6.83813667 52.98342609 Z M-185.82803345 179.14044189 C-185.88544046 289.44600402 -185.88544046 289.44600402 -185.92436337 399.75156891 C-185.92844576 415.72680821 -185.93262159 431.70204748 -185.93708543 447.67728668 C-185.93762512 449.60959818 -185.93816186 451.54190968 -185.93869562 453.47422118 C-185.94722818 484.2750837 -185.96223489 515.07593888 -185.98062789 545.87679696 C-185.99949832 577.53467847 -186.01180555 609.19255593 -186.01586343 640.85044297 C-186.01643973 645.32266179 -186.017091 649.79488058 -186.01778793 654.26709938 C-186.01792278 655.14728974 -186.01805763 656.02748009 -186.01819656 656.93434289 C-186.0205593 671.09871895 -186.02983358 685.26308245 -186.04169752 699.42745339 C-186.05347925 713.66999851 -186.05796758 727.91253118 -186.0550362 742.155081 C-186.05351593 750.61514437 -186.05756271 759.07516215 -186.06962853 767.53521729 C-186.07714323 773.19104806 -186.07735026 778.84684908 -186.07169707 784.50268193 C-186.06868564 787.72240327 -186.06988866 790.94202155 -186.07779981 794.16173705 C-186.28175181 825.09632235 -186.28175181 825.09632235 -170.82803345 851.14044189 C-161.92380012 859.44254469 -151.26136474 863.2978104 -139.27397728 863.27186966 C-138.3977803 863.27392229 -137.52158332 863.27597493 -136.61883491 863.27808976 C-133.66221715 863.28377573 -130.70564573 863.28230054 -127.74902344 863.28088379 C-125.61605101 863.28346651 -123.48307906 863.28647941 -121.35010779 863.28988719 C-115.47243368 863.29797141 -109.59477177 863.29974755 -103.71709275 863.30048466 C-97.38425763 863.30233275 -91.05142887 863.30987888 -84.71859741 863.31661987 C-70.14049152 863.33092313 -55.5623888 863.33673117 -40.9842772 863.34131182 C-33.78068454 863.34364738 -26.57709267 863.34725 -19.37350062 863.3510072 C5.28393538 863.36384337 29.94137093 863.3745623 54.5988102 863.3780098 C56.14685719 863.37823143 57.69490418 863.37845321 59.24295118 863.37867515 C60.79474518 863.37889579 62.34653919 863.37911627 63.89833319 863.3793366 C67.01151697 863.37977915 70.12470075 863.38022626 73.23788452 863.38067627 C74.0097739 863.38078566 74.78166328 863.38089505 75.57694325 863.38100776 C100.60426389 863.38463821 125.63155557 863.40055749 150.65886513 863.42386663 C177.11747574 863.44846377 203.57606979 863.46218259 230.03469217 863.46337771 C232.93935101 863.46354917 235.84400984 863.4637646 238.74866867 863.46401215 C239.46388039 863.46406791 240.17909211 863.46412368 240.91597691 863.46418114 C252.42512955 863.46533172 263.93425246 863.47635435 275.44339507 863.4908992 C287.01259681 863.50526708 298.58174659 863.50824709 310.15095742 863.50045922 C316.41843617 863.49654786 322.68581491 863.49750613 328.9532814 863.51151657 C334.6912483 863.52422615 340.42903974 863.52308373 346.1670063 863.51092586 C348.24242271 863.50896376 350.31785143 863.51207088 352.39325054 863.52077022 C368.55324202 863.58421655 380.75349311 862.33428776 393.39852905 851.17559814 C405.51944626 838.61009131 408.50751012 823.60094262 408.41806221 806.68436813 C408.42152374 805.04529276 408.42152374 805.04529276 408.42505521 803.37310475 C408.43032986 799.72816618 408.42139214 796.08340594 408.41247559 792.43847656 C408.41334817 789.79236794 408.41501596 787.14627062 408.41765392 784.50016427 C408.42178702 778.75579002 408.41853851 773.01145734 408.4103775 767.26708794 C408.39827635 758.72551168 408.39770878 750.18396148 408.39946148 741.64237821 C408.40208567 727.27207305 408.3954202 712.90178631 408.38342667 698.53148651 C408.37158519 684.30686095 408.36389327 670.08224307 408.36172104 655.85761261 C408.36151482 654.53003653 408.36151482 654.53003653 408.36130443 653.17564074 C408.36062775 648.68075955 408.36002499 644.18587836 408.35945068 639.69099715 C408.35525191 607.8689644 408.34178292 576.04694166 408.32284546 544.22491455 C408.30447134 513.31378227 408.29034051 482.40265275 408.28182983 451.49151611 C408.28128855 449.54710352 408.28074714 447.60269094 408.28020561 445.65827835 C408.27582795 429.85864506 408.27174284 414.05901171 408.26772864 398.25937833 C408.2489607 325.21972335 408.20881804 252.18009454 408.17196655 179.14044189 C212.15196655 179.14044189 16.13196655 179.14044189 -185.82803345 179.14044189 Z " fill="#FBFBFB" transform="translate(378.8280334472656,-0.14044189453125)"/>
<path d="M0 0 C3.99249013 3.43539849 6.77750837 7.08076548 7.6875 12.3125 C7.7820887 14.99849472 7.82335991 17.65812939 7.81613445 20.3439455 C7.81788749 21.16363657 7.81964053 21.98332763 7.82144669 22.82785782 C7.82612243 25.59223051 7.82363714 28.35655097 7.82121277 31.1209259 C7.82307995 33.11579309 7.82538028 35.11065991 7.82807809 37.10552615 C7.83421401 42.60134034 7.8340604 48.09713935 7.83288372 53.59295619 C7.83268016 59.51468621 7.83819414 65.4364113 7.84294128 71.35813904 C7.85125824 82.96521628 7.85400954 94.57228884 7.85455366 106.17936877 C7.85501294 115.61142345 7.85706988 125.04347648 7.86025429 134.47553062 C7.86115181 137.18905773 7.86204163 139.90258483 7.86292917 142.61611193 C7.86315021 143.29067529 7.86337126 143.96523864 7.86359901 144.66024331 C7.86975461 163.63870592 7.87369943 182.61716795 7.87325573 201.5956316 C7.87324015 202.31139537 7.87322457 203.02715914 7.87320852 203.76461273 C7.87312541 207.39252354 7.87302637 211.02043434 7.87292381 214.64834515 C7.87290387 215.36888021 7.87288392 216.08941527 7.87286337 216.83178472 C7.87282294 218.28888283 7.87278114 219.74598094 7.87273798 221.20307905 C7.87212519 243.87440612 7.87963187 266.54571823 7.89331055 289.21704102 C7.9086669 314.67956617 7.91727704 340.1420815 7.91634732 365.60461158 C7.91627269 368.31908174 7.91622399 371.03355191 7.91619301 373.74802208 C7.91618135 374.41640895 7.9161697 375.08479582 7.91615769 375.77343684 C7.91612881 385.8689043 7.92145143 395.96436002 7.92952538 406.05982399 C7.93861443 417.54063085 7.94081879 429.0214132 7.93401595 440.5022221 C7.93074266 446.36223032 7.93072317 452.22219148 7.9393692 458.08219528 C7.94719945 463.44433967 7.94583849 468.8063994 7.93708507 474.16854163 C7.93554239 476.11066065 7.93739496 478.05278588 7.94294515 479.99489758 C7.94998153 482.63121181 7.94473019 485.26722713 7.93638897 487.90353107 C7.94135715 488.66050178 7.94632533 489.41747249 7.95144406 490.19738171 C7.90392446 497.28389545 6.80412216 503.19587784 1.6875 508.3125 C-3.56724621 512.02927171 -9.10408548 512.11562339 -15.3125 511.3125 C-20.64977634 509.57592296 -23.71105674 506.21521999 -26.3125 501.3125 C-27.49532669 496.96288059 -27.45432983 492.6349141 -27.44392776 488.16079998 C-27.4459804 487.34025467 -27.44803303 486.51970935 -27.45014787 485.67429903 C-27.4558215 482.91303392 -27.45436017 480.15181863 -27.45294189 477.39054871 C-27.45552531 475.39553101 -27.45853841 473.40051383 -27.4619453 471.40549737 C-27.47002112 465.91387472 -27.47180519 460.42226513 -27.47254276 454.93063724 C-27.47439227 449.01163117 -27.48193903 443.0926319 -27.48867798 437.17362976 C-27.50297391 423.55239956 -27.50878806 409.93117036 -27.51336992 396.30993421 C-27.51570606 389.5791484 -27.5193087 382.84836343 -27.5230653 376.11757828 C-27.53589961 353.07806959 -27.54661952 330.03856137 -27.5500679 306.99904919 C-27.55028953 305.55295247 -27.55051132 304.10685576 -27.55073325 302.66075905 C-27.55095389 301.21117253 -27.55117438 299.76158602 -27.5513947 298.3119995 C-27.55183725 295.40388183 -27.55228437 292.49576416 -27.55273438 289.58764648 C-27.55284377 288.86660312 -27.55295316 288.14555977 -27.55306586 287.40266661 C-27.55669737 264.01711004 -27.57262158 240.63158445 -27.59592474 217.24603975 C-27.62051669 192.52196032 -27.63424042 167.7978986 -27.63543582 143.07380658 C-27.63560727 140.3601766 -27.6358227 137.64654662 -27.63607025 134.93291664 C-27.63612602 134.26474369 -27.63618179 133.59657075 -27.63623925 132.90815014 C-27.63731888 122.81886755 -27.64663026 112.72961364 -27.66025543 102.64034081 C-27.67563583 91.16580097 -27.68078901 79.69131426 -27.67251733 68.21676608 C-27.66860371 62.36065466 -27.66957523 56.50465028 -27.68357468 50.64855194 C-27.69627057 45.2888285 -27.69515404 39.92929301 -27.68298396 34.56956998 C-27.6810195 32.62948048 -27.68413983 30.68937786 -27.69282833 28.74930682 C-27.70388753 26.11321708 -27.69645588 23.47779456 -27.6844368 20.84172344 C-27.69203199 20.0876656 -27.69962718 19.33360775 -27.70745254 18.55669966 C-27.65213285 12.94045922 -26.76323255 7.17898268 -23.0021853 2.77989931 C-16.05255985 -3.43050123 -8.13854283 -4.14605012 0 0 Z " fill="#F1F1F1" transform="translate(506.3125,266.6875)"/>
<path d="M0 0 C3.7382674 3.01138207 6.70630234 6.18140702 8.25 10.8125 C8.34828657 13.48332406 8.38933661 16.12801842 8.38422108 18.79898453 C8.38657331 19.62596362 8.38892554 20.45294271 8.39134905 21.30498177 C8.398052 24.10016441 8.39758044 26.8953007 8.39717102 29.69049072 C8.40046883 31.70511914 8.40419422 33.7197469 8.4083125 35.73437381 C8.4183499 41.28945205 8.42205208 46.84451949 8.42470181 52.39960551 C8.42859967 58.38338733 8.4381783 64.36716055 8.44691467 70.35093689 C8.46575788 84.12679924 8.4759369 97.90266223 8.48437535 111.67853379 C8.48858061 118.48425854 8.49380274 125.2899824 8.49905988 132.09570641 C8.51695015 155.38688802 8.53194697 178.67806989 8.53938007 201.96925735 C8.53985483 203.43167716 8.54033072 204.89409696 8.54080774 206.35651676 C8.54104411 207.08175333 8.54128049 207.80698989 8.54152403 208.55420332 C8.54272524 212.22868113 8.54394068 215.90315892 8.54516602 219.57763672 C8.54552624 220.67145788 8.54552624 220.67145788 8.54589374 221.78737643 C8.55378851 245.43580764 8.57722396 269.08418873 8.60972196 292.73259806 C8.64400838 317.72799267 8.66373008 342.72335794 8.66702431 367.71877646 C8.66744186 370.46190883 8.66792143 373.20504118 8.66844749 375.94817352 C8.66863228 376.96134721 8.66863228 376.96134721 8.6688208 377.99498905 C8.67115424 388.87158581 8.68682212 399.74812442 8.70728934 410.62470045 C8.72753036 421.55433417 8.73269898 432.48390742 8.72351871 443.41355786 C8.71896115 449.33639683 8.72094473 455.2590467 8.74028015 461.18185997 C8.75782052 466.60148687 8.75698853 472.02078541 8.74138286 477.44041535 C8.73899288 479.40342908 8.74340178 481.36646501 8.75521151 483.32944468 C8.77025344 485.99424832 8.76071158 488.6578769 8.74498463 491.32265091 C8.75520683 492.08792919 8.76542904 492.85320747 8.77596101 493.64167601 C8.70532908 499.11095241 7.34573085 502.28771444 4.25 506.8125 C-1.15215533 511.70016435 -4.60805616 512.16224348 -11.765625 512.09375 C-17.06807409 511.59404276 -19.62264655 509.0617295 -23.0625 505.25 C-26.07758533 500.89487675 -25.89488291 496.91069742 -25.88701439 491.81319141 C-25.88966622 490.98482355 -25.89231804 490.15645568 -25.89505023 489.30298576 C-25.90276271 486.50307076 -25.90330314 483.70319947 -25.90390015 480.90327454 C-25.90791348 478.88523387 -25.91235148 476.86719401 -25.9171797 474.84915513 C-25.92916534 469.2846075 -25.93479825 463.72006856 -25.93936086 458.15551054 C-25.94530936 452.16148344 -25.95692102 446.16746675 -25.96765137 440.17344666 C-25.99103154 426.37358246 -26.00558457 412.57371508 -26.01788078 398.77383767 C-26.02213497 393.9998824 -26.02670069 389.22592751 -26.0314641 384.45197272 C-26.05672308 359.0734531 -26.07877318 333.69493282 -26.09119225 308.31640339 C-26.09411362 302.43595184 -26.09708113 296.55550032 -26.10009766 290.67504883 C-26.10046857 289.94447064 -26.10083947 289.21389245 -26.10122162 288.46117553 C-26.1133786 264.77121991 -26.14432503 241.08133855 -26.18601918 217.39141782 C-26.22879789 193.04089657 -26.25543209 168.69041455 -26.26066696 144.3398547 C-26.26140742 140.90119833 -26.2623181 137.46254203 -26.26332474 134.02388573 C-26.26351535 133.34712088 -26.26370597 132.67035603 -26.26390236 131.97308315 C-26.26741705 121.07807114 -26.28771998 110.1831521 -26.31412137 99.28817424 C-26.34025572 88.33835283 -26.34758314 77.38862409 -26.33702008 66.43877373 C-26.33182263 60.50564326 -26.3347911 54.57280868 -26.35948563 48.63972092 C-26.38189892 43.20949728 -26.38129971 37.77978343 -26.36228175 32.34955134 C-26.35947064 30.38382505 -26.36514159 28.41806476 -26.38009469 26.45239333 C-26.3991735 23.781312 -26.38743094 21.11205371 -26.36803246 18.44101429 C-26.38088168 17.67675868 -26.3937309 16.91250306 -26.40696949 16.12508819 C-26.31418135 10.31540779 -24.39486712 6.32180485 -20.75 1.8125 C-14.41103182 -2.98037838 -7.19795844 -3.10820933 0 0 Z " fill="#F8F8F8" transform="translate(643.75,266.1875)"/>
<path d="M0 0 C4.15595022 3.76014543 6.75798592 7.76399141 7.12524599 13.37937981 C7.14563721 14.87680989 7.14443638 16.37463644 7.12557125 17.87208652 C7.13108542 18.70566896 7.13659958 19.5392514 7.14228085 20.39809391 C7.15587858 23.19193182 7.14097738 25.98488047 7.12620544 28.77870178 C7.1300982 30.80162317 7.13573844 32.82454183 7.14297634 34.84745401 C7.15775239 40.40692324 7.14753686 45.96610984 7.13323963 51.52557003 C7.12214609 57.52086041 7.13406705 63.51611061 7.14308167 69.51139832 C7.15622073 80.57718836 7.1512251 91.64289803 7.13700638 102.70868 C7.12395638 112.93069246 7.11875829 123.15267236 7.12132454 133.37469292 C7.12148495 134.05265091 7.12164537 134.73060891 7.12181065 135.42911109 C7.12247423 138.18112863 7.12317664 140.93314616 7.12393599 143.68516368 C7.13096032 169.50190281 7.11546748 195.31858459 7.08931253 221.13530912 C7.06619479 244.07565702 7.06081022 267.0159419 7.07104492 289.95629883 C7.0736469 295.83109821 7.0762319 301.7058976 7.07864285 307.58069706 C7.07894029 308.30393809 7.07923774 309.02717912 7.0795442 309.77233655 C7.08715739 328.93789797 7.0807485 348.10345422 7.06994683 367.26901335 C7.06879901 369.33098761 7.06765583 371.39296188 7.06652 373.45493615 C7.06576475 374.8228102 7.06499911 376.19068425 7.06422299 377.55855829 C7.05856256 387.77523571 7.05989602 397.99189682 7.06445122 408.2085743 C7.06955629 419.82366513 7.06341848 431.43870425 7.04355692 443.05378181 C7.03366939 448.98256026 7.02859562 454.91123925 7.03644943 460.84002304 C7.04348731 466.26372309 7.03674596 471.6872221 7.0188458 477.11089557 C7.01478903 479.07645593 7.01582166 481.0420345 7.02236467 483.00758816 C7.03048096 485.67321929 7.02024401 488.33816747 7.00531673 491.00375462 C7.01542321 492.15630399 7.01542321 492.15630399 7.02573386 493.3321372 C6.96644772 498.78280416 5.86271331 502.97785673 2.08984375 507.01953125 C-4.13868758 511.7825258 -8.5811468 512.10949925 -16.375 511.375 C-20.85370656 509.21562362 -23.55698188 506.44547061 -26.375 502.375 C-27.61027819 498.66916543 -27.51523949 495.24476029 -27.50642776 491.38572216 C-27.5084804 490.55844347 -27.51053303 489.73116479 -27.51264787 488.87881705 C-27.51834136 486.08262339 -27.51685773 483.28647862 -27.51544189 480.49028015 C-27.51802418 478.47493918 -27.52103696 476.45959873 -27.5244453 474.44425899 C-27.53253452 468.88724857 -27.53430593 463.33025105 -27.53504276 457.77323544 C-27.53688997 451.78742889 -27.54443558 445.80162908 -27.55117798 439.81582642 C-27.56548446 426.03570581 -27.57128946 412.25558699 -27.57586992 398.47546078 C-27.57820484 391.66807302 -27.58180736 384.86068611 -27.5855653 378.05329901 C-27.59840116 354.75767716 -27.60912066 331.46205578 -27.6125679 308.16643047 C-27.61278954 306.70375657 -27.61301132 305.24108266 -27.61323325 303.77840875 C-27.61345389 302.3121739 -27.61367438 300.84593904 -27.6138947 299.37970418 C-27.61433726 296.43811333 -27.61478437 293.49652249 -27.61523438 290.55493164 C-27.61534377 289.82558678 -27.61545316 289.09624191 -27.61556586 288.34479569 C-27.61919746 264.68938458 -27.63512122 241.0340041 -27.65842474 217.37860472 C-27.6830092 192.37727981 -27.69674008 167.3759724 -27.69793582 142.37463504 C-27.69810728 139.63123977 -27.69832271 136.8878445 -27.69857025 134.14444923 C-27.69862602 133.46893269 -27.69868179 132.79341614 -27.69873925 132.0974294 C-27.69989086 121.21692811 -27.71092214 110.3364582 -27.72545731 99.45596752 C-27.73980881 88.52411616 -27.74281396 77.5922998 -27.73501733 66.66044077 C-27.73110017 60.73573246 -27.7320923 54.81112996 -27.74607468 48.88643456 C-27.75874969 43.46628945 -27.75767266 38.04633036 -27.74548396 32.62618575 C-27.74351583 30.66184613 -27.74665649 28.69749361 -27.75532833 26.73317214 C-27.76634762 24.06915383 -27.75898487 21.40580051 -27.7469368 18.74180126 C-27.75453199 17.97389597 -27.76212718 17.20599067 -27.76995254 16.41481552 C-27.70901759 10.20076261 -26.02063571 6.33197219 -22.0625 1.625 C-15.45087149 -3.91031689 -7.54718757 -3.63383105 0 0 Z " fill="#F8F8F8" transform="translate(368.375,266.625)"/>
<path d="M0 0 C0.66 0.33 1.32 0.66 2 1 C-1.3 4.3 -4.6 7.6 -8 11 C-8.33 10.34 -8.66 9.68 -9 9 C-8.06725891 7.87105124 -7.12859878 6.74699124 -6.1875 5.625 C-5.66542969 4.99851563 -5.14335938 4.37203125 -4.60546875 3.7265625 C-3 2 -3 2 0 0 Z " fill="#929292" transform="translate(12,131)"/>
<path d="M0 0 C0.66 0.33 1.32 0.66 2 1 C-0.64 3.64 -3.28 6.28 -6 9 C-6.33 8.34 -6.66 7.68 -7 7 C-2.25 1.125 -2.25 1.125 0 0 Z " fill="#9D9D9D" transform="translate(488,266)"/>
<path d="M0 0 C0.66 0.33 1.32 0.66 2 1 C-0.31 3.31 -2.62 5.62 -5 8 C-5.33 7.34 -5.66 6.68 -6 6 C-4 4 -2 2 0 0 Z " fill="#8B8B8B" transform="translate(626,266)"/>
</svg>
